<svg xmlns="http://www.w3.org/2000/svg" xmlns:xlink="http://www.w3.org/1999/xlink" width="1366" zoomAndPan="magnify" viewBox="0 0 1024.5 265.499997" height="768" preserveAspectRatio="xMidYMid meet" version="1.0"><defs><g/></defs><g fill="#8ec5b7" fill-opacity="1"><g transform="translate(83.803374, 225.472853)"><g><path d="M 126.28125 -217.484375 L 214.0625 0 L 160.8125 0 L 144.734375 -43.5 L 61.953125 -43.5 L 45.875 0 L -7.375 0 L 80.40625 -217.484375 Z M 127.859375 -87 L 103.609375 -150.265625 L 103.078125 -150.265625 L 78.828125 -87 Z M 127.859375 -87 "/></g></g></g><g fill="#ffffff" fill-opacity="1"><g transform="translate(284.548982, 249.947885)"><g><path d="M 154.75 -128.390625 C 154.75 -109.234375 146.925781 -96.140625 131.28125 -89.109375 C 145.695312 -84.359375 155.539062 -75.65625 160.8125 -63 C 162.75 -58.082031 163.71875 -52.375 163.71875 -45.875 C 163.71875 -24.78125 152.554688 -10.71875 130.234375 -3.6875 C 122.847656 -1.226562 114.144531 0 104.125 0 L 21.359375 0 L 21.359375 -174.515625 L 99.65625 -174.515625 C 118.457031 -174.515625 132.78125 -169.421875 142.625 -159.234375 C 150.707031 -151.148438 154.75 -140.867188 154.75 -128.390625 Z M 41.125 -96.484375 L 99.65625 -96.484375 C 115.820312 -96.484375 126.628906 -102.019531 132.078125 -113.09375 C 134.003906 -116.957031 134.96875 -121.128906 134.96875 -125.609375 C 134.96875 -130.097656 134.351562 -134.054688 133.125 -137.484375 C 131.894531 -140.910156 129.960938 -143.941406 127.328125 -146.578125 C 121.523438 -152.722656 113.003906 -155.796875 101.765625 -155.796875 L 41.125 -155.796875 Z M 106.234375 -18.71875 C 118.367188 -18.71875 127.6875 -21.222656 134.1875 -26.234375 C 140.6875 -31.242188 143.9375 -38.316406 143.9375 -47.453125 C 143.9375 -56.242188 140.773438 -63.445312 134.453125 -69.0625 C 127.421875 -75.394531 117.3125 -78.5625 104.125 -78.5625 L 41.125 -78.5625 L 41.125 -18.71875 Z M 106.234375 -18.71875 "/></g></g></g><g fill="#ffffff" fill-opacity="1"><g transform="translate(459.029869, 249.947885)"><g><path d="M 119.953125 -21.09375 C 109.398438 -5.625 93.671875 2.109375 72.765625 2.109375 C 53.773438 2.109375 38.304688 -4.476562 26.359375 -17.65625 C 14.765625 -30.664062 8.96875 -46.75 8.96875 -65.90625 C 8.96875 -85.0625 14.765625 -101.144531 26.359375 -114.15625 C 38.304688 -127.332031 54.210938 -133.921875 74.078125 -133.921875 C 93.941406 -133.921875 109.234375 -126.097656 119.953125 -110.453125 L 119.953125 -131.8125 L 139.71875 -131.8125 L 139.71875 0 L 119.953125 0 Z M 75.390625 -15.8125 C 89.628906 -15.8125 100.878906 -20.734375 109.140625 -30.578125 C 117.046875 -39.890625 121 -51.664062 121 -65.90625 C 121 -80.144531 117.046875 -91.921875 109.140625 -101.234375 C 100.878906 -111.078125 89.628906 -116 75.390625 -116 C 61.335938 -116 49.914062 -111.078125 41.125 -101.234375 C 32.863281 -91.921875 28.734375 -80.144531 28.734375 -65.90625 C 28.734375 -51.664062 32.863281 -39.890625 41.125 -30.578125 C 49.914062 -20.734375 61.335938 -15.8125 75.390625 -15.8125 Z M 75.390625 -15.8125 "/></g></g></g><g fill="#ffffff" fill-opacity="1"><g transform="translate(615.851855, 249.947885)"><g><path d="M 36.90625 -131.8125 L 36.90625 -111.25 C 41.65625 -117.570312 47.457031 -122.929688 54.3125 -127.328125 C 61.164062 -131.722656 68.984375 -133.921875 77.765625 -133.921875 C 86.554688 -133.921875 94.113281 -132.691406 100.4375 -130.234375 C 106.769531 -127.773438 112.304688 -124.082031 117.046875 -119.15625 C 127.941406 -108.4375 133.390625 -94.289062 133.390625 -76.71875 L 133.390625 0 L 113.625 0 L 113.625 -76.1875 C 113.625 -88.3125 110.195312 -97.976562 103.34375 -105.1875 C 96.488281 -112.394531 87.613281 -116 76.71875 -116 C 65.644531 -116 56.238281 -112.304688 48.5 -104.921875 C 40.769531 -97.367188 36.90625 -87.703125 36.90625 -75.921875 L 36.90625 0 L 17.140625 0 L 17.140625 -131.8125 Z M 36.90625 -131.8125 "/></g></g></g><g fill="#ffffff" fill-opacity="1"><g transform="translate(765.030408, 249.947885)"><g><path d="M 75.140625 -79.875 L 132.078125 0 L 107.828125 0 L 61.6875 -66.171875 L 36.90625 -41.65625 L 36.90625 0 L 17.140625 0 L 17.140625 -184.53125 L 36.90625 -184.53125 L 36.90625 -66.4375 L 100.4375 -131.8125 L 128.125 -131.8125 Z M 75.140625 -79.875 "/></g></g></g></svg>